<?xml version="1.0" encoding="UTF-8"?>
<svg width="53px" height="53px" viewBox="0 0 53 53" version="1.1" xmlns="http://www.w3.org/2000/svg" xmlns:xlink="http://www.w3.org/1999/xlink">
    <title>861AD23D-1396-4856-9A21-E980BC788312</title>
    <g id="Page-1" stroke="none" stroke-width="1" fill="none" fill-rule="evenodd">
        <g id="Test-Tablet" transform="translate(-324.000000, -3286.000000)">
            <g id="Group-31" transform="translate(0.000000, 3140.000000)">
                <g id="Group-27" transform="translate(299.000000, 120.000000)">
                    <g id="icon-delivery" transform="translate(25.000000, 27.000000)">
                        <g id="Group-45" transform="translate(26.227273, 25.272727) scale(-1, 1) translate(-26.227273, -25.272727) translate(0.727273, 0.272727)">
                            <path d="M18.9090909,13.0909091 L24,13.0909091 C24.8033233,13.0909091 25.4545455,13.7421313 25.4545455,14.5454545 C25.4545455,15.3487778 24.8033233,16 24,16 L18.9090909,16 L18.9090909,16 L18.9090909,13.0909091 Z" id="Rectangle-Copy-37" stroke="#000000" stroke-width="1.45454545"></path>
                            <g id="Group-29-Copy-3" transform="translate(29.818182, 40.000000)" stroke="#000000" stroke-width="1.45454545">
                                <path d="M0.331247048,0.847579003 C0.116337636,1.49573362 0,2.18882621 0,2.90909091 C0,6.52404564 2.93049982,9.45454545 6.54545455,9.45454545 C10.1604093,9.45454545 13.0909091,6.52404564 13.0909091,2.90909091 C13.0909091,2.14151553 12.9587862,1.4047991 12.7160421,0.720443333" id="Path"></path>
                                <path d="M4.4530304,0.888054787 C3.94742233,1.41140896 3.63636364,2.12392411 3.63636364,2.90909091 C3.63636364,4.51573745 4.938808,5.81818182 6.54545455,5.81818182 C8.15210109,5.81818182 9.45454545,4.51573745 9.45454545,2.90909091 C9.45454545,2.0851818 9.11203242,1.3412709 8.56162735,0.811979193" id="Path"></path>
                            </g>
                            <g id="Group-29-Copy-2" transform="translate(2.181818, 42.909091)" stroke="#000000" stroke-width="1.45454545">
                                <path d="M0,0 C0,3.61495473 2.93049982,6.54545455 6.54545455,6.54545455 C10.1604093,6.54545455 13.0909091,3.61495473 13.0909091,0" id="Path"></path>
                                <path d="M3.63636364,0 C3.63636364,1.60664654 4.938808,2.90909091 6.54545455,2.90909091 C8.15210109,2.90909091 9.45454545,1.60664654 9.45454545,0" id="Path"></path>
                            </g>
                            <path d="M17.4545455,42.9090909 C17.4545455,38.0891513 13.5472124,34.1818182 8.72727273,34.1818182 C3.90733309,34.1818182 0,38.0891513 0,42.9090909 L17.4545455,42.9090909 Z" id="Path-Copy-3" stroke="#000000" stroke-width="1.34265734" stroke-linejoin="round"></path>
                            <rect id="Rectangle-Copy-36" stroke="#000000" stroke-width="1.45454545" x="24" y="23.2727273" width="12.3636364" height="3.63636364" rx="1.81818182"></rect>
                            <path d="M14.5454545,18.9090909 C16.9554244,18.9090909 18.9090909,16.9554244 18.9090909,14.5454545 C18.9090909,12.1354847 16.9554244,10.1818182 14.5454545,10.1818182 L14.5454545,18.9090909 Z" id="Path-Copy-2" stroke="#000000" stroke-width="1.45454545" stroke-linecap="round" stroke-linejoin="round"></path>
                            <path d="M14.5454545,11.6363636 C12.938808,11.6363636 11.6363636,12.938808 11.6363636,14.5454545 C11.6363636,16.1521011 12.938808,17.4545455 14.5454545,17.4545455" id="Path-Copy" stroke="#000000" stroke-width="1.45454545" stroke-linecap="round" stroke-linejoin="round"></path>
                            <path d="M6.90909091,34.1818182 C5.93939394,27.3939394 7.75757576,21.6969697 12.3636364,17.0909091" id="Path-4-Copy" stroke="#000000" stroke-width="1.45454545"></path>
                            <path d="M15.6363636,18.5454545 C10.7878788,27.030303 11.6363636,32 18.1818182,33.4545455 C22.5454545,33.9393939 24.969697,31.7575758 25.4545455,26.9090909" id="Path-5-Copy" stroke="#000000" stroke-width="1.45454545"></path>
                            <path d="M17.4545455,40.7272727 L44.7272727,40.7272727 C43.5151515,34.1818182 40.4848485,29.4545455 35.6363636,26.5454545" id="Path-6-Copy" stroke="#000000" stroke-width="1.45454545" stroke-linecap="round" stroke-linejoin="round"></path>
                            <path d="M43.6363636,36.3636364 L39.6363636,36.3636364 M29.0909091,36.3636364 L20.7272727,36.3636364" id="Shape-Copy" stroke="#000000" stroke-width="1.45454545" stroke-linecap="round" stroke-linejoin="round"></path>
                            <rect id="Rectangle-Copy-35" stroke="#000000" stroke-width="1.45454545" x="38.5454545" y="11.6363636" width="11.6363636" height="11.6363636"></rect>
                            <rect id="Rectangle-Copy-34" stroke="#E52D2D" stroke-width="1.45454545" x="42.9090909" y="11.6363636" width="2.90909091" height="4.36363636"></rect>
                            <rect id="Rectangle-Copy-32" stroke="#E52D2D" stroke-width="1.45454545" x="39.2727273" y="0" width="2.90909091" height="4.36363636"></rect>
                            <rect id="Rectangle-Copy-33" stroke="#000000" stroke-width="1.45454545" x="34.9090909" y="0" width="11.6363636" height="11.6363636"></rect>
                            <polyline id="Path-7-Copy" stroke="#000000" stroke-width="1.45454545" stroke-linecap="round" stroke-linejoin="round" points="41.8181818 32 48 25.0909091 48 23.2727273"></polyline>
                            <polygon id="Rectangle-Copy-31" stroke="#000000" stroke-width="1.45454545" stroke-linejoin="round" points="35.6363636 19.6363636 38.5454545 19.6363636 38.5454545 23.2727273 34.9090909 23.2727273"></polygon>
                            <line x1="8.72727273" y1="49.4545455" x2="48" y2="49.4545455" id="Path-8-Copy" stroke="#000000" stroke-width="1.45454545" stroke-linecap="round" stroke-linejoin="round"></line>
                        </g>
                    </g>
                </g>
            </g>
        </g>
    </g>
</svg>