<?xml version="1.0" encoding="UTF-8"?>
<svg width="60px" height="57px" viewBox="0 0 60 57" version="1.1" xmlns="http://www.w3.org/2000/svg" xmlns:xlink="http://www.w3.org/1999/xlink">
    <title>D355B724-C540-4C0A-8762-64ED2AF3F403</title>
    <g id="Page-1" stroke="none" stroke-width="1" fill="none" fill-rule="evenodd">
        <g id="Test-Tablet" transform="translate(-53.000000, -3285.000000)">
            <g id="Group-31" transform="translate(0.000000, 3140.000000)">
                <g id="Group-30" transform="translate(31.000000, 120.000000)">
                    <g id="icon-order" transform="translate(23.000000, 25.000000)">
                        <g id="Group-44" transform="translate(0.636364, 0.090909)">
                            <g id="Group-20" transform="translate(0.000000, 21.818182)" stroke="#000000" stroke-width="1.45454545">
                                <path d="M5.81818182,9.73426573 L5.81818182,2.68531469 C5.81818182,1.20225634 7.12062618,0 8.72727273,0 C10.3339193,0 11.6363636,1.20225634 11.6363636,2.68531469 L11.6363636,14.7692308 C11.6363636,16.2522891 10.3339193,17.4545455 8.72727273,17.4545455 C7.12062618,17.4545455 5.81818182,16.2522891 5.81818182,14.7692308 L5.81818182,13.0909091" id="Path" stroke-linecap="round"></path>
                                <path d="M5.81818182,2.90909091 C2.60488873,2.90909091 0,5.51397964 0,8.72727273 C0,11.9405658 2.60488873,14.5454545 5.81818182,14.5454545" id="Path"></path>
                            </g>
                            <g id="Group-20-Copy" transform="translate(50.727273, 30.818182) scale(-1, 1) translate(-50.727273, -30.818182) translate(44.727273, 21.818182)" stroke="#000000" stroke-width="1.45454545">
                                <path d="M5.81818182,9.73426573 L5.81818182,2.68531469 C5.81818182,1.20225634 7.12062618,0 8.72727273,0 C10.3339193,0 11.6363636,1.20225634 11.6363636,2.68531469 L11.6363636,14.7692308 C11.6363636,16.2522891 10.3339193,17.4545455 8.72727273,17.4545455 C7.12062618,17.4545455 5.81818182,16.2522891 5.81818182,14.7692308 L5.81818182,13.0909091" id="Path" stroke-linecap="round"></path>
                                <path d="M5.81818182,2.90909091 C2.60488873,2.90909091 0,5.51397964 0,8.72727273 C0,11.9405658 2.60488873,14.5454545 5.81818182,14.5454545" id="Path"></path>
                            </g>
                            <path d="M8.72727273,22.5454545 C8.72727273,17.9569849 10.301076,13.7360966 12.9383293,10.3931432 M43.7976552,10.4041943 C46.4296622,13.7453966 48,17.9620396 48,22.5454545" id="Shape" stroke="#000000" stroke-width="1.45454545"></path>
                            <path d="M28.49695,0.727272727 C34.3964418,0.727272727 39.9293076,3.08351955 43.9986954,7.19198563 C44.4226813,7.62004303 44.6330239,8.1794305 44.6303557,8.73780009 C44.6276875,9.29616969 44.4120085,9.85352139 43.9839511,10.2775073 C43.5558937,10.7014931 42.9965062,10.9118358 42.4381367,10.9091676 C41.8797671,10.9064994 41.3224154,10.6908204 40.8984295,10.262763 C37.6394171,6.97245432 33.2211866,5.09090909 28.49695,5.09090909 C23.7727651,5.09090909 19.3545789,6.97241283 16.0955748,10.2626577 C15.6715853,10.6907115 15.1142318,10.9063858 14.5558622,10.9090493 C13.9974925,10.9117128 13.4381068,10.7013654 13.010053,10.277376 C12.5819992,9.85338647 12.3663249,9.29603294 12.3636614,8.73766333 C12.3609979,8.17929372 12.5713452,7.61990802 12.9953347,7.19185419 C17.0647124,3.08346765 22.5975228,0.727272727 28.49695,0.727272727 Z" id="Path" stroke="#000000" stroke-width="1.45454545" fill-rule="nonzero"></path>
                            <rect id="Rectangle" stroke="#000000" stroke-width="1.45454545" x="26.1818182" y="50.1818182" width="7.27272727" height="4.36363636" rx="2.18181818"></rect>
                            <path d="M48,39.2727273 C48,46.5026367 42.1390004,52.3636364 34.9090909,52.3636364 L33.4545455,52.3636364 L33.4545455,52.3636364" id="Path-2" stroke="#000000" stroke-width="1.45454545"></path>
                            <path d="M29.0909091,18.1818182 C35.1158336,18.1818182 40,23.0659845 40,29.0909091 C40,35.1158336 35.1158336,40 29.0909091,40 C27.7870971,40 26.5367071,39.7712731 25.3776757,39.3517559 L18.9090909,42.9090909 L20.8420831,36.2301608 C19.1846684,34.3168289 18.1818182,31.8209831 18.1818182,29.0909091 C18.1818182,23.0659845 23.0659845,18.1818182 29.0909091,18.1818182 Z" id="Combined-Shape" stroke="#000000" stroke-width="1.45454545" stroke-linejoin="round"></path>
                            <g id="Group-21" transform="translate(22.545455, 27.636364)" fill="#E52D2D">
                                <circle id="Oval" cx="1.45454545" cy="1.45454545" r="1.45454545"></circle>
                                <circle id="Oval-Copy-4" cx="5.81818182" cy="1.45454545" r="1.45454545"></circle>
                                <circle id="Oval-Copy-5" cx="10.1818182" cy="1.45454545" r="1.45454545"></circle>
                            </g>
                        </g>
                    </g>
                </g>
            </g>
        </g>
    </g>
</svg>