<svg xmlns="http://www.w3.org/2000/svg" width="182" height="84" viewBox="0 0 182 84">
    <g>
        <g>
            <path d="M3.358 41.621c.864.054 1.62-.594 1.674-1.458.378-4.374.432-9.342.27-14.904 3.996-1.134 6.48-3.024 7.506-5.67.918-2.592.702-7.506-.594-11.556C10.756 3.281 7.84-.337 3.682.69c-1.35.27-2.214.81-2.646 1.566-.162.216-.216.486-.216.756-.054.108-.054.27-.054.432V4.47c.054 1.458.108 2.106.54 7.452.918 12.096 1.134 21.438.594 28.026-.054.864.594 1.62 1.458 1.674zM5.14 22.02c-.162-2.808-.378-6.264-.702-10.314-.432-4.752-.486-5.994-.54-7.344v-.54l.432-.108c.972-.216 1.89.108 2.7.972 1.728 1.89 2.97 5.994 3.186 9.828.216 3.888.108 5.832-5.076 7.506zm13.338 19.386c1.458.054 3.348-.054 5.67-.324.162.054.27.054.378.054.27 0 .486-.054.702-.162 2.43-.27 4.266-.432 5.508-.432.864 0 1.566-.702 1.566-1.566 0-.864-.702-1.566-1.566-1.566-1.242 0-2.808.108-4.698.324-.054-.918-.108-2.106-.27-3.564-.216-2.43-.324-4.158-.378-5.184-.108 0-.108-4.104 0-12.366V4.091c1.512 0 2.862 0 4.05-.054.864 0 1.512-.756 1.512-1.62 0-.864-.756-1.512-1.62-1.512-.796.04-2.882.05-6.236.053L19.018.96c-.864 0-1.566.702-1.566 1.566 0 .864.702 1.566 1.566 1.566h3.24V4.2c0 1.836 0 4.428-.054 7.83-.04 2.552-.05 4.92-.053 7.108v2.78c.004 5.123.07 7.753.485 12.522.162 1.728.216 2.916.27 3.618-1.674.162-3.132.27-4.32.216-.864 0-1.62.648-1.62 1.512s.648 1.62 1.512 1.62zm21.654.108c1.728.162 6.588.108 8.748-.108.864-.054 1.458-.864 1.404-1.728-.054-.864-.864-1.458-1.728-1.404-1.944.216-6.696.27-8.208.108h-.162l.486-2.538c.162-.594.27-1.188.432-1.89.162-.648.27-1.242.432-1.728.108-.486.162-.756.162-.864 1.458-6.48 3.564-14.202 6.426-23.22 0-.054.27-.648.864-1.836.486-1.134.648-2.106.486-2.97-.378-2.214-2.16-2.538-4.104-2.538-.486 0-1.35 0-2.592.054-2.484.054-3.942.108-4.374.054-.432-.054-.81.054-1.134.324-.378.27-.54.648-.594 1.08-.054.864.54 1.674 1.404 1.728.594.054 2.16 0 4.806-.054 1.35-.054 2.16-.054 2.484-.054h.756c.054-.054.054-.054.108-.054s.108 0 .054.054c.108-.054.162-.108.162-.054.054.27-.054.594-.324 1.08-.594 1.35-.972 2.052-1.026 2.214-2.862 9.126-5.022 16.956-6.426 23.544-.054.054-.108.324-.216.81l-.432 1.782c-.162.702-.27 1.296-.378 1.89-.27 1.188-.486 2.16-.594 2.862-.054.432-.108.81-.108 1.08v.54c.162.864.648 1.35 1.35 1.566l.54.162c.378.054.81.108 1.296.108zm17.982 0c1.728.162 6.588.108 8.748-.108.864-.054 1.458-.864 1.404-1.728-.054-.864-.864-1.458-1.728-1.404-1.944.216-6.696.27-8.208.108h-.162l.486-2.538c.162-.594.27-1.188.432-1.89.162-.648.27-1.242.432-1.728.108-.486.162-.756.162-.864 1.458-6.48 3.564-14.202 6.426-23.22 0-.054.27-.648.864-1.836.486-1.134.648-2.106.486-2.97-.378-2.214-2.16-2.538-4.104-2.538-.486 0-1.35 0-2.592.054-2.484.054-3.942.108-4.374.054-.432-.054-.81.054-1.134.324-.378.27-.54.648-.594 1.08-.054.864.54 1.674 1.404 1.728.594.054 2.16 0 4.806-.054 1.35-.054 2.16-.054 2.484-.054h.756c.054-.054.054-.054.108-.054s.108 0 .054.054c.108-.054.162-.108.162-.054.054.27-.054.594-.324 1.08-.594 1.35-.972 2.052-1.026 2.214-2.862 9.126-5.022 16.956-6.426 23.544-.054.054-.108.324-.216.81l-.432 1.782c-.162.702-.27 1.296-.378 1.89-.27 1.188-.486 2.16-.594 2.862-.054.432-.108.81-.108 1.08v.54c.162.864.648 1.35 1.35 1.566l.54.162c.378.054.81.108 1.296.108zM84.52 39.84c.162.864.972 1.458 1.836 1.296.864-.162 1.458-.972 1.296-1.836-.27-1.728-.378-4.05-.324-5.832.054-.918.054-1.998 0-3.24-.27-9.72-.756-17.01-1.458-21.816-.702-4.968-2.97-8.856-8.1-8.37-2.322.216-3.24.648-3.834 3.186-.378 1.566-.324 3.402-.27 5.832.054 1.242.054 1.89.054 1.998 0 4.266.162 8.694.378 14.688l.216 6.696c.162 2.322.162 4.86-.27 6.75-.216.864.27 1.674 1.134 1.89.864.216 1.674-.27 1.89-1.134.594-2.322.54-5.616.378-7.614-.054-.594-.162-3.78-.324-9.45.162.054.27.054.432.054.54 0 1.728.054 3.564.162 1.242.054 2.16.108 2.862.162.054 1.674.162 4.05.216 7.074.054 1.242.054 2.268 0 3.024-.054 1.89.054 4.536.324 6.48zm-.702-19.71c-1.026-.054-4.698-.324-6.264-.324-.162 0-.378.054-.54.108-.108-3.402-.162-6.318-.162-8.856 0-.162 0-.864-.054-2.106-.054-2.538-.054-3.888.162-5.022.054-.324.162-.54.27-.702.108 0 .378 0 .864-.054 2.754-.27 4.05 1.782 4.644 5.67.486 3.402.864 7.128 1.08 11.286zM8.48 80.271c.453 0 .747-.073.88-.22.133-.147.2-.34.2-.58 0-.293-.08-.707-.24-1.24-.347-1.013-.56-1.733-.64-2.16-.24-1.147-.36-2.453-.36-3.92v-7.36c0-.213.02-.38.06-.5.04-.12.14-.18.3-.18.213 0 .413.153.6.46.187.307.36.593.52.86.587 1.04 1.047 1.7 1.38 1.98.333.28.74.42 1.22.42s.933-.253 1.36-.76l1.04-1.52c.16-.187.387-.473.68-.86.293-.387.507-.58.64-.58.267 0 .4.253.4.76v7.36c0 1.547-.12 2.887-.36 4.02-.24 1.133-.533 2.247-.88 3.34 0 .453.347.68 1.04.68.533 0 1.053-.027 1.56-.08.507-.053 1.2-.08 2.08-.08.853 0 1.653.027 2.4.08.747.053 1.253.08 1.52.08.373 0 .62-.073.74-.22.12-.147.18-.34.18-.58 0-.267-.073-.72-.22-1.36-.147-.64-.273-1.2-.38-1.68-.32-1.52-.48-3.16-.48-4.92v-12.12c0-1.787.16-3.093.48-3.92.32-.827.48-1.627.48-2.4 0-.267-.08-.467-.24-.6-.16-.133-.413-.2-.76-.2-.48.053-.953.093-1.42.12-.467.027-1.113.04-1.94.04-.613 0-1.067-.027-1.36-.08-.293-.053-.68-.08-1.16-.08-.453 0-.82.16-1.1.48-.28.32-.86 1.227-1.74 2.72-.693 1.173-1.267 1.987-1.72 2.44-.347.347-.667.52-.96.52-.56 0-1.093-.387-1.6-1.16-.293-.427-.667-1.147-1.12-2.16-.24-.56-.48-1.133-.72-1.72-.32-.747-.76-1.12-1.32-1.12-.32 0-.647.033-.98.1-.333.067-.94.1-1.82.1-.64 0-1.187-.033-1.64-.1-.453-.067-1.027-.1-1.72-.1-.24 0-.48.06-.72.18s-.36.34-.36.66c0 .213.067.527.2.94.133.413.253.847.36 1.3.107.453.18 1.073.22 1.86.04.787.06 1.607.06 2.46v11.12c0 .667-.027 1.693-.08 3.08-.053 1.387-.12 2.24-.2 2.56-.08.32-.307 1.067-.68 2.24-.107.32-.16.573-.16.76 0 .347.107.573.32.68.213.107.427.16.64.16.587-.027 1.133-.06 1.64-.1.507-.04 1.24-.06 2.2-.06.8 0 1.56.027 2.28.08.72.053 1.187.08 1.4.08zm33.88 0c.72 0 1.287-.08 1.7-.24.413-.16.62-.507.62-1.04l-.08-2c0-.56.033-1.027.1-1.4s.1-.693.1-.96c0-.213-.067-.42-.2-.62s-.387-.3-.76-.3c-.347 0-.8.173-1.36.52-.32.187-.64.36-.96.52-.747.373-1.38.6-1.9.68-.52.08-1.233.12-2.14.12h-.52c-.667 0-1.16-.093-1.48-.28-.48-.293-.72-.867-.72-1.72v-6.08c0-.667.133-1.107.4-1.32.267-.213.68-.32 1.24-.32h5.16c1.12 0 1.913-.167 2.38-.5.467-.333.7-.727.7-1.18 0-.667-.3-1.113-.9-1.34-.6-.227-1.367-.34-2.3-.34-.053 0-.553.027-1.5.08-.947.053-1.62.08-2.02.08-.987 0-1.76-.12-2.32-.36-.56-.24-.84-.667-.84-1.28 0-.533.24-.987.72-1.36.48-.373 1.2-.56 2.16-.56 1.173 0 2.253.333 3.24 1 .187.133.493.347.92.64.373.213.747.32 1.12.32.853 0 1.28-.413 1.28-1.24 0-.213-.027-.447-.08-.7-.053-.253-.113-.547-.18-.88-.067-.333-.113-.62-.14-.86-.027-.24-.04-.453-.04-.64 0-.613.027-1.227.08-1.84.053-.613.08-1.093.08-1.44 0-.453-.113-.76-.34-.92-.227-.16-.527-.24-.9-.24l-1.68.08c-.88.08-1.747.12-2.6.12h-3.169c-.474-.003-1.138-.016-1.991-.04-.96-.027-1.667-.04-2.12-.04l-2.88-.12c-.587 0-1.013.087-1.28.26-.267.173-.4.42-.4.74.24.907.48 1.8.72 2.68.187.853.28 2.093.28 3.72v12.84c0 2.453-.267 4.187-.8 5.2-.24.453-.36 1.067-.36 1.84 0 .267.14.453.42.56.28.107.58.16.9.16.293 0 .813-.033 1.56-.1.747-.067 1.907-.1 3.48-.1l4.8.08 4.8.12zm5.88 0c.187 0 .647-.02 1.38-.06.733-.04 1.54-.06 2.42-.06.72 0 1.36.02 1.92.06.56.04 1.147.06 1.76.06.24 0 .46-.047.66-.14.2-.093.3-.273.3-.54-.293-.8-.587-1.613-.88-2.44-.267-.907-.4-1.96-.4-3.16v-8.88c0-.507.047-.86.14-1.06.093-.2.207-.3.34-.3.64 0 1.533.76 2.68 2.28 1.253 1.653 1.88 3.187 1.88 4.6v3.84c0 1.787-.147 2.92-.44 3.4-.293.48-.44 1-.44 1.56 0 .32.16.56.48.72.187.08.4.12.64.12.587-.027 1.153-.06 1.7-.1.547-.04 1.14-.06 1.78-.06.347 0 .88.027 1.6.08.72.053 1.333.08 1.84.08.24 0 .453-.04.64-.12.187-.08.28-.267.28-.56l-.64-2.48c-.16-.853-.24-2.013-.24-3.48v-13.92c0-1.52.093-2.813.28-3.88.187-1.067.4-2.027.64-2.88 0-.453-.32-.68-.96-.68-.747 0-1.313.02-1.7.06-.387.04-1.113.06-2.18.06l-3.88-.12c-.507 0-.827.067-.96.2s-.2.293-.2.48c0 .107.08.253.24.44.267.293.487.573.66.84.173.267.34.647.5 1.14.16.493.24.993.24 1.5v.64c0 .133-.067.24-.2.32-.027 0-.08.013-.16.04-.16 0-.453-.24-.88-.72-.72-.8-1.44-1.533-2.16-2.2-.88-.853-1.613-1.48-2.2-1.88-.773-.533-1.453-.8-2.04-.8l-1.2.08-1.36.04-1.72-.04-1.08-.08c-.587 0-.88.28-.88.84 0 .32.067.6.2.84.613 1.147.987 1.973 1.12 2.48.293 1.04.44 2.547.44 4.52v13.6c0 .773-.053 1.4-.16 1.88-.107.48-.28 1.013-.52 1.6-.32.853-.48 1.347-.48 1.48 0 .347.127.56.38.64.253.08.527.12.82.12zm31.56.32c3.013 0 5.287-.607 6.82-1.82 1.533-1.213 2.3-3.073 2.3-5.58v-13.36c0-2.16.267-3.947.8-5.36.213-.56.32-1.08.32-1.56 0-.427-.267-.64-.8-.64-.453.027-.927.053-1.42.08-.417.023-1.126.036-2.126.04h-.574c-.533-.027-1.087-.053-1.66-.08-.573-.027-1.207-.04-1.9-.04-.32 0-.54.06-.66.18s-.18.3-.18.54c0 .24.08.56.24.96.08.213.213.547.4 1 .16.507.26.973.3 1.4.04.427.06 1.04.06 1.84v14c0 .56-.067 1-.2 1.32-.267.613-.8.92-1.6.92-.667 0-1.12-.193-1.36-.58-.24-.387-.36-.967-.36-1.74v-12.6c0-.88.04-1.553.12-2.02.08-.467.227-1.18.44-2.14.053-.32.127-.653.22-1s.187-.653.28-.92c.093-.267.14-.44.14-.52 0-.427-.253-.64-.76-.64-.587 0-1.107.02-1.56.06-.453.04-1.12.06-2 .06h-.348c-.909-.005-1.66-.024-2.252-.06-.667-.04-1.173-.06-1.52-.06-.533 0-.8.213-.8.64 0 .267.073.64.22 1.12.147.48.26.867.34 1.16.08.293.147.867.2 1.72.053.853.08 1.533.08 2.04v14.64c0 2.027.493 3.587 1.48 4.68 1.387 1.547 3.827 2.32 7.32 2.32z" transform="translate(0 3)"/>
        </g>
        <g>
            <path d="M31.893 22.08c0-.695-.188-1.343-.46-1.96-3.187.386-6.354.98-9.332 1.763-.002.067-.02.13-.02.196 0 2.705 2.2 4.907 4.906 4.907 2.704 0 4.906-2.202 4.906-4.907z" transform="translate(103)"/>
            <path d="M71.143 26.538c-1.915 0-3.757-.434-5.475-1.292-1.353-.676-2.874-1.289-4.468-1.863-.619 3.436-3.616 6.056-7.227 6.056-4.06 0-7.36-3.301-7.36-7.36v-2.02c-2.478-.282-4.96-.44-7.363-.44-.914 0-1.847.038-2.78.08.196.778.33 1.572.33 2.38 0 5.413-4.401 9.814-9.813 9.814-4.967 0-9.037-3.719-9.682-8.51-1.59.572-3.108 1.184-4.459 1.859-1.648.824-3.51 1.263-5.383 1.263-.118 0-.228-.045-.346-.049l5.15 9.56v25.316c0 4.058 3.301 7.36 7.36 7.36 3.485 0 6.41-2.435 7.17-5.693l10.295 19.448c.428.796 1.258 1.291 2.161 1.291s1.732-.495 2.16-1.29l7.37-14.016c-.7.159-1.422.26-2.17.26-5.42 0-9.813-4.394-9.813-9.813 0-5.42 4.393-9.814 9.813-9.814 4.207 0 7.767 2.662 9.162 6.383l15.583-28.94c-.074.001-.14.03-.215.03zM34.346 46.612c-4.058 0-7.36-3.302-7.36-7.36 0-1.355 1.098-2.453 2.454-2.453s2.453 1.098 2.453 2.453c0 1.354 1.1 2.454 2.453 2.454 1.354 0 2.454-1.1 2.454-2.454 0-1.355 1.097-2.453 2.453-2.453 1.356 0 2.453 1.098 2.453 2.453 0 4.058-3.301 7.36-7.36 7.36zm14.72-7.36c-1.355 0-2.453-1.098-2.453-2.453 0-1.355 1.098-2.453 2.453-2.453 1.354 0 2.453 1.098 2.453 2.453 0 1.355-1.099 2.453-2.453 2.453z" transform="translate(103)"/>
            <path d="M46.613 53.972c-2.705 0-4.907 2.202-4.907 4.907 0 2.704 2.202 4.906 4.907 4.906 2.704 0 4.906-2.202 4.906-4.906 0-2.705-2.202-4.907-4.906-4.907zM77.73 17.56c1.812-3.626.336-8.056-3.293-9.874C64.957 2.945 51.478 0 39.26 0 27.035 0 13.551 2.945 4.07 7.686.44 9.504-1.04 13.93.778 17.563c1.775 3.534 6.32 5.07 9.875 3.29 7.463-3.73 18.687-6.14 28.598-6.14 3.99 0 8.185.405 12.27 1.115v6.251c0 1.355 1.098 2.454 2.453 2.454 1.354 0 2.453-1.099 2.453-2.454v-5.222c4.234 1.033 8.193 2.38 11.427 3.998 3.612 1.798 8.03.39 9.876-3.294z" transform="translate(103)"/>
        </g>
    </g>
</svg>
